<?xml version="1.0" standalone="no"?>
<!DOCTYPE svg PUBLIC "-//W3C//DTD SVG 1.1//EN" "http://www.w3.org/Graphics/SVG/1.1/DTD/svg11.dtd" >
<svg xmlns="http://www.w3.org/2000/svg" xmlns:xlink="http://www.w3.org/1999/xlink" version="1.1">
<metadata>
Created by FontForge 20161013 at Thu Dec 26 18:28:10 2013
 By ,,,
Copyright (c) 2013 ParaType Inc., ParaType Ltd. All rights reserved.
</metadata>
<defs>
<font id="PTRoubleSans" horiz-adv-x="556" >
  <font-face 
    font-family="PT Rouble Sans"
    font-weight="400"
    font-stretch="normal"
    units-per-em="1000"
    panose-1="2 0 1 1 1 1 1 1 1 1"
    ascent="950"
    descent="-50"
    x-height="688"
    cap-height="722"
    bbox="-48 0 809 740"
    underline-thickness="50"
    underline-position="-200"
    unicode-range="U+0020-2116"
  />
<missing-glyph horiz-adv-x="233" 
 />
    <glyph glyph-name=".notdef" horiz-adv-x="233" 
 />
    <glyph glyph-name=".null" horiz-adv-x="0" 
 />
    <glyph glyph-name="nonmarkingreturn" horiz-adv-x="333" 
 />
    <glyph glyph-name="space" unicode=" " horiz-adv-x="233" 
 />
    <glyph glyph-name="exclam" unicode="!" horiz-adv-x="572" 
d="M437 466q3 13 3 21q0 45 -57 45h-25l-29 -140h20q42 0 61 16t27 58zM378 79h-116l-12 -58q-3 -14 -7.5 -17.5t-16.5 -3.5h-136q-16 0 -16 8q0 1 2 13l12 58h-53q-18 0 -18 9q0 2 2 12l16 77q4 17 7.5 21t17.5 4h54l10 47h-54q-18 0 -18 9q0 2 2 12l20 97q4 17 8.5 21
t18.5 4h54l54 258q3 13 6.5 16t16.5 3h175q99 0 146 -34t47 -118q0 -18 -4 -41q-19 -104 -92.5 -165.5t-177.5 -61.5h-28l-10 -47h116q18 0 18 -10q0 -1 -2 -15l-16 -77q-3 -13 -7.5 -17t-18.5 -4z" />
    <glyph glyph-name="quotedbl" unicode="&#x22;" horiz-adv-x="576" 
d="M195 639v-268h100q88 0 129.5 34t41.5 107q0 72 -41 99.5t-130 27.5h-100zM121 0v176h-78v60h78v75h-78v60h78v329h201q214 0 214 -192q0 -58 -21 -99t-57.5 -61t-74 -28.5t-81.5 -8.5h-107v-75h235v-60h-235v-176h-74z" />
    <glyph glyph-name="percent" unicode="%" horiz-adv-x="650" 
d="M273 558v-184h73q56 0 88 23.5t32 70.5q0 90 -120 90h-73zM108 0v104h-87v103h87v64h-87v103h87v326h270q122 0 186.5 -56.5t64.5 -151.5q0 -109 -67.5 -165t-171.5 -56h-117v-64h205v-103h-205v-104h-165z" />
    <glyph glyph-name="parenleft" unicode="(" horiz-adv-x="530" 
d="M211 700h157q156 0 217 -63q51 -54 51 -139q0 -102 -63 -160q-77 -73 -255 -73h-103l-11 -48h214l-13 -62h-214l-33 -155h-96l33 155h-82l13 62h82l10 48h-82l16 78h82zM231 343h90q125 0 171 45q40 38 40 105q0 57 -33 88q-37 36 -141 36h-69z" />
    <glyph glyph-name="parenright" unicode=")" horiz-adv-x="600" 
d="M312 700q86 0 141 -12.5t96 -52.5q61 -61 61 -152q0 -103 -59 -162q-66 -67 -233 -67h-91v-55h214v-80h-214v-119h-150v119h-87v80h87v55h-87v106h87v340h235zM227 360h61q94 0 131 35q31 30 31 77q0 59 -37 85q-30 21 -102 21h-84v-218z" />
    <glyph glyph-name="asterisk" unicode="*" horiz-adv-x="520" 
d="M272 700q137 0 202 -63q62 -59 62 -157q0 -94 -55 -149q-66 -66 -225 -66h-108v-48h214v-62h-214v-155h-96v155h-82v62h82v48h-82v78h82v357h220zM148 343h113q91 0 133 38q39 35 39 100q0 61 -38 97q-41 39 -133 39h-114v-274z" />
    <glyph glyph-name="plus" unicode="+" horiz-adv-x="600" 
d="M326 700q164 0 233 -68q63 -61 63 -170q0 -96 -56 -155q-40 -41 -90 -53.5t-116 -12.5h-121v-61h194v-92h-194v-88h-178v88h-88v92h88v61h-88v126h88v333h265zM239 367h79q62 0 89 25t27 70q0 50 -24 72q-26 24 -78 24h-93v-191z" />
    <glyph glyph-name="comma" unicode="," horiz-adv-x="425" 
d="M10 358h59l77 360h80q199 0 199 -183q0 -58 -23.5 -109.5t-61.5 -79.5q-67 -48 -194 -48h-21l-15 -72h129l-13 -60h-129l-34 -166h-68l34 166h-59l12 60h60l15 72h-60zM138 358h38q89 0 135 47.5t46 129.5q0 63 -30 92.5t-101 29.5h-25z" />
    <glyph glyph-name="hyphen" unicode="-" horiz-adv-x="538" 
d="M363 471q0 43 -16.5 61.5t-58.5 18.5h-27v-165h20q46 0 64 19.5t18 65.5zM512 480q0 -98 -60 -159.5t-162 -61.5h-29v-60h127q13 0 17 -3.5t4 -17.5v-69q0 -13 -3.5 -16.5t-17.5 -3.5h-127v-69q0 -13 -3.5 -16.5t-16.5 -3.5h-110q-13 0 -16 3t-3 17v69h-58
q-14 0 -17.5 3.5t-3.5 16.5v69q0 14 4 17.5t17 3.5h58v60h-58q-14 0 -17.5 3.5t-3.5 16.5v86q0 14 4 17.5t17 3.5h58v264q0 14 3 16.5t16 2.5h159q114 0 168 -46t54 -143z" />
    <glyph glyph-name="period" unicode="." 
d="M339 612l-48 -238h88q62 0 102 35q19 16 33.5 46.5t14.5 62.5q0 38 -27 65q-29 29 -88 29h-75zM96 374h95l66 326h174q112 0 165 -53q40 -40 40 -104q0 -51 -19.5 -102t-52.5 -82q-73 -73 -202 -73h-88l-19 -93h137l-13 -64h-137l-26 -129h-100l26 129h-94l13 64h94
l19 93h-95z" />
    <glyph glyph-name="slash" unicode="/" horiz-adv-x="600" 
d="M215 700h232q143 0 210 -69q57 -59 57 -153q0 -103 -56 -163q-31 -34 -81.5 -51t-89.5 -20t-105 -3h-91l-12 -61h202l-19 -92h-203l-19 -88h-174l19 88h-88l19 92h88l13 61h-88l27 125h88zM318 366h75q73 0 103 27q30 26 30 77q0 46 -29 68q-24 20 -77 20h-62z" />
    <glyph glyph-name="zero" unicode="0" 
d="M307 566l-41 -194h30q60 0 96.5 20t48.5 83q2 11 2 25q0 66 -93 66h-43zM243 267l-14 -68h117q16 0 16 -12q0 -6 -1 -9l-10 -51q-6 -21 -25 -21h-117l-18 -86q-4 -20 -24 -20h-78q-17 0 -17 13q0 1 0.5 3.5t0.5 3.5l18 86h-60q-16 0 -16 13q0 5 1 8l10 51q5 21 25 21h60
l14 68h-60q-16 0 -16 12q0 5 1 9l13 63q5 21 25 21h60l58 276q4 20 24 20h144q190 0 190 -134q0 -31 -4 -52q-17 -98 -89.5 -156.5t-180.5 -58.5h-47z" />
    <glyph glyph-name="one" unicode="1" horiz-adv-x="431" 
d="M0 397h61v334h137q111 0 160 -49.5t49 -169.5q0 -102 -48 -156.5t-138 -54.5h-50v-74h106v-96h-106v-131h-110v131h-61v96h61v74h-61v96zM171 398q9 -1 21 -1q58 0 81.5 29t23.5 95q0 60 -21.5 88t-72.5 28q-15 0 -32 -3v-236z" />
    <glyph glyph-name="two" unicode="2" horiz-adv-x="431" 
d="M5 391h65l71 334h95q101 0 148 -49t47 -146q0 -102 -61 -166.5t-176 -64.5h-38l-15 -70h108l-19 -92h-108l-30 -137h-105l30 137h-65l19 92h65l15 70h-65zM176 391h36q51 0 85 39.5t34 95.5q0 52 -16 80t-66 28h-23z" />
    <glyph glyph-name="three" unicode="3" horiz-adv-x="380" 
d="M251 179h-125v-179h-56v179h-64v50h64v80h-64v50h64v364h121q91 0 129 -51t38 -153q0 -111 -40 -160.5t-141 -49.5h-51v-80h125v-50zM126 359h50q73 0 99.5 35t26.5 119q0 85 -24.5 123t-91.5 38h-60v-315z" />
    <glyph glyph-name="four" unicode="4" horiz-adv-x="398" 
d="M282 154h-112v-154h-97v154h-63v88h63v64h-63v88h63v329h103q120 0 159 -41.5t39 -162.5q0 -117 -37.5 -165t-139.5 -48h-27v-64h112v-88zM170 394h15q57 0 73.5 28t16.5 102q0 61 -17 86t-68 25h-20v-241z" />
    <glyph glyph-name="five" unicode="5" horiz-adv-x="500" 
d="M201 337h39q24 0 41 3t41 14t37.5 40t13.5 74q0 37 -9.5 60.5t-28.5 33.5t-37 13t-46 3h-51v-241zM326 132h-125v-121q0 -11 -11 -11h-55q-11 0 -11 11v121h-70q-10 0 -10 11v32q0 11 10 11h70v86h-69q-11 0 -11 11v43q0 11 11 11h69v295q0 11 11 11h124q29 0 47 -1
t48.5 -10t48.5 -26t32.5 -51.5t14.5 -82.5q0 -55 -18.5 -95.5t-41.5 -60t-56 -30.5t-50.5 -12.5t-36.5 -1.5h-46v-86h122q15 0 15 -17v-26q0 -11 -12 -11z" />
    <glyph glyph-name="six" unicode="6" horiz-adv-x="500" 
d="M214 337h39q20 0 32 1t35 7.5t38.5 19t31.5 38.5t24 62q4 20 4 39q0 45 -27 59.5t-75 14.5h-51zM295 132h-125l-26 -121q-2 -11 -13 -11h-55q-9 0 -9 7v4l26 121h-70q-8 0 -8 7v4l7 32q2 11 13 11h70l18 86h-69q-9 0 -9 7v4l9 43q4 11 14 11h69l62 295q4 11 14 11h124
q23 0 40 -1.5t41 -8t39.5 -18.5t27 -35.5t11.5 -56.5q0 -25 -5 -51q-11 -55 -36.5 -95.5t-52 -60t-62 -30.5t-54 -12.5t-40.5 -1.5h-46l-18 -86h122q12 0 12 -9q0 -3 -1 -8l-6 -26q-2 -11 -14 -11z" />
    <glyph glyph-name="seven" unicode="7" horiz-adv-x="518" 
d="M383 473q0 57 -25.5 79.5t-88.5 22.5h-54v-217h49q59 0 89 26.5t30 88.5zM485 478q0 -100 -57 -154t-151 -54h-62v-77h121q11 0 13.5 -3t2.5 -14v-44q0 -11 -2.5 -14.5t-13.5 -3.5h-121v-98q0 -10 -3.5 -13t-13.5 -3h-68q-10 0 -12.5 2.5t-2.5 13.5v98h-64
q-11 0 -13.5 3.5t-2.5 14.5v44q0 11 2.5 14t13.5 3h64v77h-64q-11 0 -13.5 3.5t-2.5 14.5v53q0 11 2.5 14t13.5 3h64v282q0 11 2.5 13.5t12.5 2.5h146q119 0 164 -44.5t45 -133.5z" />
    <glyph glyph-name="eight" unicode="8" horiz-adv-x="524" 
d="M241 358h49q62 0 96 27t47 88q4 20 4 35q0 35 -22.5 51t-73.5 16h-54zM141 358l60 282q2 11 5 13.5t13 2.5h146q96 0 136.5 -32t40.5 -91q0 -22 -6 -55q-20 -101 -85.5 -154.5t-166.5 -53.5h-62l-16 -77h121q13 0 13 -7q0 -6 -1 -10l-9 -44q-2 -11 -5.5 -14.5t-14.5 -3.5
h-121l-21 -98q-2 -10 -6 -13t-14 -3h-68q-13 0 -13 7q0 5 1 9l21 98h-64q-13 0 -13 8q0 2 2 10l8 44q2 11 5.5 14t14.5 3h64l16 77h-64q-14 0 -14 8q0 2 2 10l11 53q2 11 5.5 14t14.5 3h64z" />
    <glyph glyph-name="nine" unicode="9" 
d="M242 566v-194h30q26 0 44 3t38 12.5t30.5 31.5t10.5 56q0 26 -8.5 44t-19 27t-28 14t-28 5.5t-26.5 0.5h-43zM242 267v-68h117q20 0 20 -21v-51q0 -21 -20 -21h-117v-86q0 -20 -20 -20h-78q-20 0 -20 20v86h-60q-6 0 -9.5 0.5t-7 5.5t-3.5 15v51q0 21 20 21h60v68h-60
q-6 0 -9.5 0.5t-7 5.5t-3.5 15v63q0 21 20 21h60v276q0 20 20 20h144q48 0 84.5 -7.5t70.5 -26t52 -57t18 -95.5q0 -98 -60.5 -156.5t-163.5 -58.5h-47z" />
    <glyph glyph-name="colon" unicode=":" horiz-adv-x="510" 
d="M267 700q120 0 183 -63q60 -60 60 -147q0 -90 -55 -145q-68 -68 -215 -68h-116v-52h214v-54h-214v-171h-74v171h-75v54h75v52h-75v59h75v364h217zM124 336h94q124 0 172 48q38 38 38 104q0 63 -34 100q-45 50 -162 50h-108v-302z" />
    <glyph glyph-name="semicolon" unicode=";" horiz-adv-x="600" 
d="M234 591v-214h79q74 0 107.5 30t33.5 79q0 105 -141 105h-79zM106 0v133h-84v86h84v72h-84v86h84v323h237q107 0 171.5 -50.5t64.5 -151.5q0 -59 -22.5 -101.5t-59.5 -64.5t-74 -31.5t-76 -9.5h-113v-72h212v-86h-212v-133h-128z" />
    <glyph glyph-name="equal" unicode="=" horiz-adv-x="541" 
d="M419 471q3 19 3 31q0 49 -62 49h-27l-35 -165h20q47 0 70 19t31 66zM569 480q-25 -108 -94.5 -164.5t-174.5 -56.5h-29l-12 -60h127q18 0 18 -10q0 -1 -2 -11l-15 -69q-2 -13 -6.5 -16.5t-18.5 -3.5h-127l-14 -69q-3 -13 -7.5 -16.5t-17.5 -3.5h-110q-16 0 -16 7
q0 1 2 13l14 69h-58q-17 0 -17 9q0 7 1 11l15 69q2 14 7 17.5t18 3.5h58l12 60h-58q-18 0 -18 8q0 2 2 12l18 86q3 14 7.5 17.5t17.5 3.5h58l56 264q3 14 6.5 16.5t16.5 2.5h159q187 0 187 -136q0 -32 -5 -53z" />
    <glyph glyph-name="question" unicode="?" horiz-adv-x="510" 
d="M134 336l77 364h139q75 0 128.5 -12.5t89.5 -49.5q49 -52 49 -128q0 -99 -60 -161q-71 -72 -246 -72h-115l-12 -52h214l-12 -54h-213l-37 -171h-74l36 171h-75l12 54h75l11 52h-76l14 59h75zM208 336h104q130 0 180 50q42 42 42 119q0 59 -34 93q-40 40 -149 40h-79z" />
    <glyph glyph-name="backslash" unicode="\" horiz-adv-x="563" 
d="M373 466q0 37 -16.5 51.5t-51.5 14.5h-25v-140h20q41 0 57 16.5t16 57.5zM396 79h-116v-58q0 -14 -3.5 -17.5t-15.5 -3.5h-136q-13 0 -16 3.5t-3 17.5v58h-54q-14 0 -17.5 4t-3.5 17v77q0 17 3.5 21t17.5 4h54v47h-54q-14 0 -17.5 4t-3.5 17v97q0 17 3.5 21t17.5 4h54
v258q0 13 3 16t16 3h175q67 0 107 -10t67 -36q56 -53 56 -147q0 -102 -61 -164.5t-161 -62.5h-28v-47h116q14 0 17.5 -4t3.5 -21v-77q0 -13 -3.5 -17t-17.5 -4z" />
    <glyph glyph-name="underscore" unicode="_" horiz-adv-x="600" 
d="M231 700h197q73 0 125 -12t89 -51q53 -55 53 -151q0 -94 -55 -150q-80 -82 -267 -82h-88l-13 -55h214l-17 -80h-214l-25 -119h-148l25 119h-87l17 80h87l12 55h-87l24 106h87zM306 358h45q114 0 154 42q30 31 30 84q0 51 -37 76q-28 18 -83 18h-62z" />
    <glyph glyph-name="afii10017" unicode="&#x410;" horiz-adv-x="520" 
d="M491 516q0 -107 -58.5 -164.5t-171.5 -57.5h-58v-66h203v-76h-203v-152h-148v152h-42v76h42v66h-42v76h42v337q20 3 47 6q79 9 148 9q26 0 48 -3q4 0 14 -2q4 0 6 -1q5 0 11 -2q85 -17 123.5 -70t38.5 -128zM347 507q0 118 -105 118q-6 0 -39 -5v-250h31q113 0 113 137z
" />
    <glyph glyph-name="afii10018" unicode="&#x411;" horiz-adv-x="602" 
d="M17 399h85l72 323h154q139 0 201.5 -44.5t62.5 -143.5q0 -113 -66 -174.5t-195 -61.5h-124l-15 -70h165l-25 -101h-164l-29 -127h-127l29 127h-86l24 101h85l15 70h-86zM227 399h83q76 0 116 33t40 94q0 97 -118 97h-71z" />
    <glyph glyph-name="afii10019" unicode="&#x412;" horiz-adv-x="505" 
d="M550 570q1 -72 -26 -127t-74 -86.5t-103.5 -47t-121.5 -15.5l-19 -84h172l-11 -58h-172l-30 -152h-133l31 152h-50l10 58h52l18 84h-50l12 57h50l71 357q95 14 182 14q93 0 141.5 -41.5t50.5 -110.5zM407 545q-1 97 -72 97q-23 0 -41 -3l-58 -288q89 0 131 56.5t40 137.5
z" />
    <glyph glyph-name="afii10020" unicode="&#x413;" horiz-adv-x="520" 
d="M10 144v85h74v60h-74v85h74v326h200q107 0 163 -54t56 -154q0 -99 -55.5 -151t-163.5 -52h-72v-60h191v-85h-191v-144h-128v144h-74zM212 374h48q115 0 115 121q0 57 -27.5 83.5t-87.5 26.5h-48v-231z" />
    <glyph glyph-name="afii10021" unicode="&#x414;" horiz-adv-x="466" 
d="M570 555q0 -45 -15 -86t-46.5 -77.5t-89 -58.5t-134.5 -22h-59l-18 -71h187l-14 -55h-186l-40 -185h-83l40 185h-51l14 55h50l16 71h-54l14 55h52l78 343q57 13 150 13q96 0 142.5 -46.5t46.5 -120.5zM483 548q0 55 -30 83.5t-86 28.5q-18 0 -34.5 -2t-24.5 -4l-7 -2
l-64 -286h40q106 0 156 49t50 133z" />
    <glyph glyph-name="afii10022" unicode="&#x415;" horiz-adv-x="740" 
d="M415 242h-22v-50h160v-126h-160v-66h-258v66h-95v126h95v50h-95v152h95v306h280q154 0 228.5 -63.5t74.5 -165.5t-74.5 -165.5t-228.5 -63.5zM467 466q0 72 -56 72h-25v-144h25q56 0 56 72z" />
    <glyph glyph-name="afii10024" unicode="&#x416;" horiz-adv-x="485" 
d="M60 163h-47v65h47v77h-47v65h47v337q88 15 190 15q117 0 176 -53t59 -143q0 -53 -15.5 -92.5t-41.5 -63.5t-65 -39t-80.5 -20.5t-92.5 -5.5v-77h216v-65h-216v-163h-130v163zM350 511q0 60 -26.5 94.5t-78.5 34.5q-23 0 -55 -5v-265q86 0 123 31.5t37 109.5z" />
    <glyph glyph-name="afii10025" unicode="&#x417;" horiz-adv-x="491" 
d="M399 164h-268v-164h-68v164h-63v46h63v110h-63v46h63v345q80 14 177 14q62 0 109 -17.5t72.5 -46.5t37.5 -60.5t12 -65.5q0 -36 -12 -70t-40 -68.5t-84.5 -55.5t-134.5 -21h-69v-110h268v-46zM398 532q0 145 -178 145q-20 0 -42 -2t-34 -4l-13 -2v-303q24 -1 64 -1
q203 0 203 167z" />
    <glyph glyph-name="afii10026" unicode="&#x418;" horiz-adv-x="604" 
d="M188 169v-169h-94v169h-69v80h69v61h-69v80h69v335h222q127 0 185 -50t58 -156q0 -102 -56 -155.5t-169 -53.5h-146v-61h187v-80h-187zM188 645v-255h114q84 0 122.5 30.5t38.5 99.5q0 66 -39.5 95.5t-124.5 29.5h-111z" />
    <glyph glyph-name="afii10027" unicode="&#x419;" horiz-adv-x="614" 
d="M264 385h43q60 0 89 30.5t29 75.5q0 46 -29.5 72.5t-88.5 26.5h-43v-205zM122 700h187q60 0 107.5 -12.5t75 -35t45.5 -45t25.5 -50.5t10 -44t2.5 -32q0 -37 -13 -71.5t-39.5 -65.5t-75 -50t-112.5 -19h-71v-83h151v-90h-151v-102h-142v102h-95v90h95v83h-95v110h95v315z
" />
    <glyph glyph-name="afii10028" unicode="&#x41a;" horiz-adv-x="612" 
d="M374 568l-39 -183h31q43 0 67 25q33 33 33 101q0 18 -12 37q-15 20 -49 20h-31zM307 253l-13 -61h165l-22 -102h-165l-19 -90h-182l19 90h-94l22 102h94l13 61h-95l28 132h95l67 315h200q154 0 202 -68q27 -39 27 -93q0 -130 -76 -206q-80 -80 -217 -80h-49z" />
    <glyph glyph-name="afii10029" unicode="&#x41b;" horiz-adv-x="466" 
d="M58 311h-45v55h45v343q53 13 162 13q62 0 107 -17.5t68.5 -47t34 -61t10.5 -66.5q0 -107 -66 -163t-174 -56h-59v-71h253v-55h-253v-185h-83v185h-45v55h45v71zM356 527q0 63 -36 98t-109 35q-19 0 -36.5 -2t-25.5 -4l-8 -2v-286h44q171 0 171 161z" />
    <glyph glyph-name="afii10030" unicode="&#x41c;" horiz-adv-x="602" 
d="M25 376h79l77 347h163q124 0 182 -44.5t58 -139.5q0 -106 -70.5 -166t-200.5 -60h-147l-19 -79h189l-13 -63h-190l-39 -171h-73l38 171h-80l13 63h81l18 79h-79zM179 376h115q106 0 160 41.5t54 120.5q0 67 -42.5 95t-135.5 28h-88z" />
    <glyph glyph-name="afii10031" unicode="&#x41d;" horiz-adv-x="740" 
d="M457 242h-22l-11 -50h160l-25 -126h-160l-14 -66h-258l14 66h-94l24 126h95l11 50h-95l30 152h95l63 306h280q133 0 196 -51.5t63 -134.5q0 -123 -90.5 -196t-261.5 -76zM458 394h25q36 0 55 28.5t19 65.5q0 50 -44 50h-25z" />
    <glyph glyph-name="afii10032" unicode="&#x41e;" horiz-adv-x="442" 
d="M367 164h-233l-36 -164h-57l35 164h-54l10 46h54l25 110h-54l8 46h55l77 345q73 14 145 14q93 0 134 -43t41 -110q0 -113 -77.5 -182.5t-217.5 -69.5h-53l-25 -110h233zM213 365q110 0 175 51.5t65 147.5q0 113 -127 113q-18 0 -37.5 -2t-30.5 -4l-11 -2l-69 -303
q0 -1 35 -1z" />
    <glyph glyph-name="afii10033" unicode="&#x41f;" horiz-adv-x="520" 
d="M596 570q0 -74 -27 -129t-75.5 -86.5t-108.5 -46t-134 -14.5l-14 -66h178l-17 -76h-177l-32 -152h-166l32 152h-50l17 76h49l14 66h-48l18 76h46l72 337q104 15 203 15q120 0 170 -39.5t50 -112.5zM428 545q0 80 -63 80q-9 0 -44 -5l-53 -250q50 0 85 20t49.5 51.5t20 56
t5.5 47.5z" />
    <glyph glyph-name="afii10034" unicode="&#x420;" horiz-adv-x="442" 
d="M354 164h-233v-164h-58v164h-55v46h55v110h-55v46h55v345q70 14 153 14q54 0 95 -17.5t63 -46.5t32.5 -60.5t10.5 -65.5q0 -36 -10.5 -70t-35 -68.5t-73.5 -55.5t-117 -21h-60v-110h233v-46zM353 532q0 145 -154 145q-18 0 -37.5 -2t-29.5 -4l-11 -2v-303q21 -1 56 -1
q176 0 176 167z" />
    <glyph glyph-name="afii10035" unicode="&#x421;" horiz-adv-x="602" 
d="M24 373h79v350h204q127 0 187 -50.5t60 -153.5q0 -98 -58 -153t-166 -55h-155v-78h201v-62h-201v-171h-72v171h-79v62h79v78h-79v62zM175 373h123q94 0 137 35t43 112q0 73 -45.5 107.5t-140.5 34.5h-117v-289z" />
    <glyph glyph-name="afii10036" unicode="&#x422;" horiz-adv-x="602" 
d="M13 309l18 80h74l75 334h160q130 0 191 -44.5t61 -140.5q0 -108 -69 -168.5t-198 -60.5h-138l-14 -62h173l-19 -80h-172l-38 -167h-100l38 167h-73l18 80h73l14 62h-74zM262 643l-57 -254h100q187 0 187 145q0 57 -36 83t-115 26h-79z" />
    <glyph glyph-name="afii10037" unicode="&#x423;" horiz-adv-x="612" 
d="M300 568v-183h31q40 0 59 25q17 23 17 67q0 48 -21 71q-19 20 -55 20h-31zM300 253v-61h165v-102h-165v-90h-182v90h-95v102h95v61h-95v132h95v315h200q156 0 220 -68q51 -57 51 -158q0 -86 -45 -142q-64 -79 -195 -79h-49z" />
    <glyph glyph-name="afii10038" unicode="&#x424;" horiz-adv-x="491" 
d="M543 562q0 -45 -16.5 -87t-50 -80t-94.5 -61t-141 -23h-50l-16 -71h193l-13 -55h-192l-39 -185h-86l39 185h-53l13 55h52l15 71h-56l13 55h54l74 343q59 13 156 13q101 0 149.5 -43.5t48.5 -116.5zM453 557q0 52 -28.5 77.5t-93.5 25.5q-19 0 -36 -2t-25 -4l-7 -2
l-61 -286h28q112 0 167.5 52t55.5 139z" />
    <glyph glyph-name="afii10039" unicode="&#x425;" horiz-adv-x="491" 
d="M397 221h-204l-47 -221h-68l47 221h-59l11 46h58l12 60h-59l12 46h57l72 338q66 11 154 11q92 0 140 -41t48 -109q0 -42 -11.5 -81.5t-43 -78.5t-79.5 -58q-67 -27 -162 -27h-62l-10 -60h205zM501 559q0 62 -43 88.5t-106 26.5q-20 0 -36 -1t-22 -3l-6 -1l-64 -296h56
q97 0 159 43t62 143z" />
    <glyph glyph-name="afii10040" unicode="&#x426;" horiz-adv-x="614" 
d="M351 385h43q67 0 104.5 37t37.5 89q0 36 -25.5 57.5t-75.5 21.5h-43zM272 700h187q69 0 117 -18t70 -47.5t30.5 -57t8.5 -57.5q0 -44 -17.5 -86.5t-51 -78.5t-90 -58t-127.5 -22h-71l-16 -83h151l-19 -90h-151l-20 -102h-142l20 102h-94l19 90h94l16 83h-95l23 110h95z
" />
    <glyph glyph-name="afii10041" unicode="&#x427;" horiz-adv-x="594" 
d="M23 370h83l78 348h176q223 0 223 -179q0 -117 -75 -169.5t-239 -52.5q-72 0 -112 3l-20 -87h213l-12 -52h-212l-40 -181h-61l39 181h-84l12 52h84l19 85h-84zM376 666h-141l-67 -296h157q94 0 145 44t51 121q0 62 -37 96.5t-108 34.5z" />
    <glyph glyph-name="afii10042" unicode="&#x428;" horiz-adv-x="520" 
d="M7 282v99h68v319h197q112 0 170 -47.5t58 -157.5q0 -95 -52.5 -154t-156.5 -59h-60v-59h169v-99h-169v-124h-156v124h-68v99h68v59h-68zM225 381h35q41 0 62.5 33t21.5 85q0 53 -21.5 77.5t-71.5 24.5h-26v-220z" />
    <glyph glyph-name="afii10043" unicode="&#x429;" horiz-adv-x="548" 
d="M95 700h182q65 0 113.5 -16t74 -38t40.5 -53.5t19 -55.5t4 -51q0 -48 -15 -85.5t-41.5 -58.5t-52 -34.5t-57.5 -18.5t-46 -6t-29 -1h-64q-6 0 -10.5 -4.5t-4.5 -10.5v-70h100q28 0 28 -28v-40q0 -28 -28 -28h-100v-66q0 -16 -5.5 -24.5t-11.5 -9.5t-18 -1h-78
q-12 0 -18 1t-11.5 9.5t-5.5 24.5v66h-32q-28 0 -28 28v40q0 28 28 28h32v468q0 12 1 18t9.5 11.5t24.5 5.5zM219 412h58q39 0 65 22.5t26 58.5q0 34 -22 56.5t-70 22.5h-55q-13 0 -13 -13v-137q0 -10 11 -10z" />
    <glyph glyph-name="afii10044" unicode="&#x42a;" horiz-adv-x="491" 
d="M58 311h-45v55h45v343q56 13 165 13q68 0 116.5 -17.5t73 -47t35 -60.5t10.5 -67q0 -106 -72 -162.5t-183 -56.5h-60l1 -71h262v-55h-262v-185h-86v185h-45v55h45v71zM364 522q0 63 -38 100.5t-112 37.5q-19 0 -36.5 -2t-25.5 -4l-8 -2l-2 -286h46q84 0 130 39t46 117z
" />
    <glyph glyph-name="afii10045" unicode="&#x42b;" horiz-adv-x="505" 
d="M60 163h-47v65h47v77h-47v65h47v337q88 15 190 15q119 0 179 -49.5t60 -138.5q0 -229 -294 -229v-77h211v-65h-211v-163h-135v163zM350 511q0 60 -26.5 94.5t-78.5 34.5q-17 0 -50 -5v-265q85 0 120 31.5t35 109.5z" />
    <glyph glyph-name="afii10046" unicode="&#x42c;" horiz-adv-x="606" 
d="M3 294v102h84v331h230q254 0 254 -216q0 -106 -61.5 -161.5t-179.5 -55.5h-115v-58h170v-102h-170v-134h-128v134h-84v102h84v58h-84zM215 396h82q77 0 112 28t35 87q0 60 -35 87.5t-112 27.5h-82v-230z" />
    <glyph glyph-name="afii10047" unicode="&#x42d;" horiz-adv-x="485" 
d="M564 570q0 -72 -28 -127t-75.5 -86.5t-104.5 -47t-122 -15.5l-20 -84h172l-12 -58h-172l-33 -152h-133l34 152h-50l11 58h52l19 84h-50l13 57h50l78 357q95 14 182 14q93 0 141 -41.5t48 -110.5zM421 545q0 97 -70 97q-23 0 -41 -3l-64 -288q89 0 132 56.5t43 137.5z" />
    <glyph glyph-name="afii10048" unicode="&#x42e;" horiz-adv-x="425" 
d="M12 360h59v363h107q219 0 219 -210t-219 -210h-37v-78h131v-57h-131v-168h-70v168h-59v57h59v78h-59v57zM141 360h53q70 0 103.5 40t33.5 109q0 151 -137 151h-53v-300z" />
    <glyph glyph-name="afii10049" unicode="&#x42f;" horiz-adv-x="594" 
d="M35 376h77v346h180q250 0 250 -200q0 -202 -238 -202h-132v-79h200v-56h-200v-185h-60v185h-77v56h77v79h-77v56zM172 376h148q77 0 118.5 38.5t41.5 107.5q0 144 -179 144h-129v-290z" />
    <glyph glyph-name="afii10065" unicode="&#x430;" horiz-adv-x="506" 
d="M533 537q0 -130 -79 -196t-209 -66h-40l-18 -82h157l-19 -89h-157l-22 -104h-116l21 104h-49l19 89h49l18 82h-50l19 89h50l66 311q86 13 162 13q107 0 152.5 -44t45.5 -107zM260 364q70 0 110 39t40 118q0 76 -86 76q-30 0 -52 -5l-48 -228h36z" />
    <glyph glyph-name="afii10066" unicode="&#x431;" horiz-adv-x="614" 
d="M369 643l-59 -290h103q87 0 135.5 48.5t48.5 130.5q0 37 -16.5 61.5t-41 34t-40 12.5t-27.5 3h-103zM138 296l11 57h95l70 347h182q81 0 127 -44.5t46 -116.5q0 -94 -67 -168.5t-187 -74.5h-116l-21 -103h126l-9 -45h-126l-30 -148h-66l30 148h-95l9 45h95l21 103h-95z
" />
    <glyph glyph-name="afii10067" unicode="&#x432;" horiz-adv-x="487" 
d="M466 497q0 -41 -11 -77t-36 -70.5t-75 -54.5t-120 -20h-40v-82h157v-89h-157v-104h-117v104h-50v89h50v82h-50v89h50v311q83 13 185 13q109 0 161.5 -55t52.5 -136zM340 486q0 111 -105 111q-31 0 -51 -5v-228h36q64 0 92 30t28 92z" />
    <glyph glyph-name="afii10068" unicode="&#x433;" horiz-adv-x="560" 
d="M8 297v96h79v347h202q67 0 118 -17t78 -41.5t43.5 -58t21 -58.5t4.5 -51q0 -37 -12 -72t-40 -69.5t-82.5 -55t-130.5 -20.5h-65v-70h219v-80h-219v-147h-137v147h-79v80h79v70h-79zM224 612v-219h73q18 0 35.5 4t38.5 15t33.5 35t12.5 59q0 33 -13 55.5t-34 32.5
t-38.5 14t-34.5 4h-73z" />
    <glyph glyph-name="afii10069" unicode="&#x434;" 
d="M87 731h187q135 0 206 -56.5t71 -163.5t-71 -163.5t-206 -56.5h-83v-62h211l1 -53h-212v-176h-104l-1 176h-81v53h82v62h-82v88h82v352zM191 643v-264h73q92 0 136.5 31.5t44.5 99.5q0 69 -44.5 101t-136.5 32h-73z" />
    <glyph glyph-name="afii10070" unicode="&#x435;" horiz-adv-x="555" 
d="M404 139h-189v-139h-108v139h-87v86h87v72h-87v93h87v350h179q129 0 195 -59.5t66 -163.5t-65.5 -162t-195.5 -58h-71v-72h189v-86zM215 641v-251h71q84 0 118.5 37.5t34.5 91.5q0 52 -34.5 87t-118.5 35h-71z" />
    <glyph glyph-name="afii10072" unicode="&#x436;" 
d="M180 379l67 352h161q146 0 205 -58q52 -52 52 -142q0 -97 -62 -159q-83 -81 -257 -81h-80l-12 -62h211l-10 -53h-212l-34 -176h-104l34 176h-80l10 53h80l12 62h-80l17 88h82zM334 643l-51 -264h74q119 0 165 47q37 39 37 101q0 52 -32 82q-37 34 -137 34h-56z" />
    <glyph glyph-name="afii10073" unicode="&#x437;" horiz-adv-x="618" 
d="M48 0l24 126h-74l17 86h74l11 57h-74l22 113h74l70 358h257q95 0 156.5 -55t61.5 -156q0 -122 -75 -191t-200 -69h-111l-11 -57h204l-17 -86h-204l-24 -126h-181zM341 574l-38 -192h67q48 0 81.5 29.5t33.5 77.5q0 39 -26 62t-68 23h-50z" />
    <glyph glyph-name="afii10074" unicode="&#x438;" horiz-adv-x="406" 
d="M30 99l17 80h41l111 521h220q84 0 84 -63q0 -30 -7 -62l-45 -212q-5 -25 -11.5 -42t-20.5 -38.5t-38.5 -33t-59.5 -11.5h-80l-13 -59h105l-17 -80h-105l-21 -99h-140l21 99h-41zM257 315h18q25 0 33 35l51 238q7 35 -19 35h-18z" />
    <glyph glyph-name="afii10075" unicode="&#x439;" horiz-adv-x="555" 
d="M18 347h94v393h167q68 0 108.5 -9t76.5 -35q33 -24 54 -69.5t21 -96.5t-21 -96.5t-54 -69.5q-34 -26 -75.5 -35t-109.5 -9h-137v-107h251v-27h-251v-186h-30v186h-94v27h94v107h-94v27zM142 713v-366h138q63 0 100 9t68 32q27 20 44 59.5t17 81.5q0 44 -17 83.5t-44 59.5
q-31 23 -68 32t-100 9h-138z" />
    <glyph glyph-name="afii10076" unicode="&#x43a;" horiz-adv-x="554" 
d="M-12 214h95l16 83h-95l14 67h94l74 376h191q108 0 163 -46q63 -52 63 -153q0 -125 -92 -191q-75 -53 -198 -53h-139l-16 -83h218l-13 -63h-218l-29 -151h-74l29 151h-96zM247 673l-60 -309h138q87 0 140 39q64 47 64 136q0 65 -41 102q-36 32 -121 32h-120z" />
    <glyph glyph-name="afii10077" unicode="&#x43b;" 
d="M288 604l-52 -272h99q127 0 178 51q38 38 38 98q0 55 -32 87q-36 36 -135 36h-96zM232 664h170q121 0 174 -55q43 -45 43 -122q0 -88 -54 -142q-73 -73 -223 -73h-118l-16 -81h202l-8 -44h-203l-28 -147h-68l29 147h-69l9 44h68l16 81h-69l12 60h68z" />
    <glyph glyph-name="afii10078" unicode="&#x43c;" horiz-adv-x="406" 
d="M5 99v80h36v521h220q35 0 57.5 -12t31.5 -33.5t12 -38.5t3 -41v-212q0 -24 -3 -41t-12 -38.5t-31.5 -33.5t-57.5 -12h-80v-59h110v-80h-110v-99h-140v99h-36zM181 315h18q26 0 26 35v238q0 35 -26 35h-18v-308z" />
    <glyph glyph-name="afii10079" unicode="&#x43d;" horiz-adv-x="555" 
d="M82 0l27 139h-87l17 86h86l14 72h-86l18 93h86l69 350h184q108 0 161 -55q51 -53 51 -139q0 -125 -89 -198q-63 -51 -180 -51h-104l-15 -72h189l-17 -86h-189l-27 -139h-108zM315 641l-49 -251h106q60 0 97 32q45 40 45 106q0 53 -26 81q-29 32 -86 32h-87z" />
    <glyph glyph-name="afii10080" unicode="&#x43e;" 
d="M168 604v-272h99q97 0 143 32.5t46 103.5t-46 103.5t-143 32.5h-99zM100 664h189q112 0 173.5 -51.5t61.5 -143.5q0 -93 -61.5 -145t-173.5 -52h-121v-81h202v-44h-202v-147h-68v147h-68v44h68v81h-68v60h68v332z" />
    <glyph glyph-name="afii10081" unicode="&#x43f;" horiz-adv-x="499" 
d="M62 668q87 20 169 20q54 0 95.5 -13t66.5 -33t41 -47.5t21.5 -54t5.5 -55.5q0 -30 -3.5 -55.5t-17 -58.5t-37 -56t-67.5 -39t-104 -16h-38v-67h147v-104h-147v-89h-132v89h-45v104h45v67h-45v104h45v304zM194 578v-214h31q56 0 78.5 28.5t22.5 84.5q0 105 -88 105z" />
    <glyph glyph-name="afii10082" unicode="&#x440;" horiz-adv-x="489" 
d="M171 668q83 20 158 20q113 0 156.5 -44t43.5 -119q0 -118 -71.5 -191.5t-202.5 -73.5h-38l-15 -67h147l-22 -104h-147l-19 -89h-131l18 89h-44l22 104h44l15 67h-44l21 104h45zM284 578l-45 -214h31q59 0 94 41t35 98q0 79 -70 79z" />
    <glyph glyph-name="afii10083" unicode="&#x441;" horiz-adv-x="314" 
d="M17 106l13 66h47l113 528h154q48 0 63 -16q11 -13 11 -34q0 -22 -6 -52l-51 -241q-5 -21 -10 -35t-16.5 -33t-33.5 -29t-53 -10h-55l-17 -78h76l-13 -66h-77l-22 -106h-99l22 106h-46zM207 314h12q34 0 41 34l54 252q8 36 -26 36h-13z" />
    <glyph glyph-name="afii10084" unicode="&#x442;" horiz-adv-x="418" 
d="M0 367h55v333h149q94 0 140 -46q51 -52 51 -160v-20q0 -92 -43 -142q-48 -55 -138 -55h-59v-56h69v-90h-69v-131h-100v131h-55v90h55v56h-55v90zM155 610v-243h54q43 0 67 26q3 4 6 7.5t5 8t3.5 7.5t2 8.5t1.5 7.5t1 8.5v8v8.5v8v46q0 59 -27 81q-22 18 -78 18h-35z" />
    <glyph glyph-name="afii10085" unicode="&#x443;" horiz-adv-x="554" 
d="M0 213h98v84h-98v65h98v378h207q77 0 130.5 -22t78.5 -58.5t35 -70.5t10 -71q0 -93 -62 -157t-192 -64h-133v-84h257v-63h-257v-150h-74v150h-98v63zM172 673v-311h134q92 0 135.5 45t43.5 110q0 66 -43.5 111t-135.5 45h-134z" />
    <glyph glyph-name="afii10086" unicode="&#x444;" horiz-adv-x="487" 
d="M60 351v323q84 14 171 14q116 0 169.5 -54t53.5 -136q0 -46 -10 -81.5t-36 -69t-79 -51.5t-130 -18h-42v-85h187v-74h-187v-119h-97v119h-48v74h48v84h-48v74h48zM353 485q0 129 -128 129q-15 0 -32 -2t-27 -4l-9 -3v-254h40q86 0 121 35.5t35 98.5z" />
    <glyph glyph-name="afii10087" unicode="&#x445;" horiz-adv-x="466" 
d="M433 486q0 -33 -10.5 -64.5t-34 -62.5t-71 -50t-113.5 -19h-52v-84h192v-61h-192v-145h-82v145h-58v61h58v84h-58v61h58v324q57 13 139 13q56 0 97.5 -12t65.5 -30.5t38 -46.5t18.5 -54t4.5 -59zM348 499q0 59 -35 94.5t-101 35.5q-21 0 -36 -1.5t-20 -2.5l-4 -1v-273h54
q81 0 111.5 40.5t30.5 107.5z" />
    <glyph glyph-name="afii10088" unicode="&#x446;" horiz-adv-x="555" 
d="M251 740h172q108 0 160 -43q61 -50 61 -145q0 -123 -89 -185q-41 -29 -89 -38t-121 -9h-145l-21 -107h256l-5 -27h-257l-36 -186h-30l36 186h-93l5 27h93l21 107h-93l5 27h93zM276 713l-71 -366h147q115 0 174 35q88 53 88 170q0 84 -55 126q-48 35 -147 35h-136z" />
    <glyph glyph-name="afii10089" unicode="&#x447;" horiz-adv-x="314" 
d="M8 106v66h33v528h154q18 0 29 -2t27.5 -10.5t25 -31t8.5 -58.5v-241q0 -30 -6.5 -51t-14.5 -31.5t-22 -16.5t-23.5 -7t-23.5 -1h-55v-78h90v-66h-90v-106h-99v106h-33zM140 314h12q34 0 34 34v252q0 36 -33 36h-13v-322z" />
    <glyph glyph-name="afii10090" unicode="&#x448;" horiz-adv-x="560" 
d="M5 227h75l13 70h-75l19 96h75l68 347h211q108 0 161 -55q52 -55 50 -146q-4 -131 -81 -191q-65 -51 -181 -51h-109l-14 -70h200l-16 -80h-200l-28 -147h-137l28 147h-76zM292 612l-43 -219h92q49 0 79 25q41 35 43 95q3 49 -19 73q-24 26 -70 26h-82z" />
    <glyph glyph-name="afii10091" unicode="&#x449;" horiz-adv-x="618" 
d="M13 382h74v358h211q163 0 227 -51q88 -70 85 -195q-3 -123 -82 -178q-39 -27 -86.5 -37t-122.5 -10h-51v-57h204v-86h-204v-126h-181v126h-74v86h74v57h-74v113zM268 574v-192h45q18 0 34.5 3t37.5 12t33.5 31t12.5 54q0 26 -10 44.5t-22 27.5t-32.5 14t-31.5 5.5
t-29 0.5h-38z" />
    <glyph glyph-name="afii10092" unicode="&#x44a;" horiz-adv-x="472" 
d="M503 542q0 -116 -70.5 -184t-194.5 -68h-52l-18 -84h192l-13 -61h-192l-31 -145h-81l30 145h-57l13 61h57l18 84h-58l13 61h58l69 324q60 13 136 13q56 0 94 -12t56 -34.5t24.5 -45.5t6.5 -54zM199 351h54q77 0 122 49.5t45 127.5q0 51 -23.5 76t-78.5 25q-21 0 -36 -1.5
t-20 -2.5l-5 -1z" />
    <glyph glyph-name="afii10093" unicode="&#x44b;" horiz-adv-x="485" 
d="M103 351l69 323q87 14 158 14q189 0 189 -148q0 -128 -78.5 -195t-214.5 -67h-42l-18 -85h187l-15 -74h-187l-26 -119h-96l25 119h-47l15 74h47l18 84h-47l15 74h48zM240 351q52 0 90 18.5t56 47.5t25.5 56t7.5 53q0 88 -98 88q-13 0 -30 -2t-27 -4l-10 -3l-54 -254h40z
" />
    <glyph glyph-name="afii10094" unicode="&#x44c;" horiz-adv-x="614" 
d="M232 643v-290h103q16 0 31 1.5t38.5 10t40.5 22.5t29.5 43t12.5 68q0 41 -14.5 70.5t-33 43t-44 21.5t-37.5 9t-23 1h-103zM71 296v57h95v347h182q97 0 153.5 -55.5t56.5 -146.5t-56.5 -146.5t-153.5 -55.5h-116v-103h126v-45h-126v-148h-66v148h-95v45h95v103h-95z" />
    <glyph glyph-name="afii10095" unicode="&#x44d;" 
d="M57 731h184q85 0 136.5 -6.5t88.5 -27.5q102 -57 102 -195q0 -139 -102 -196q-61 -34 -225 -34h-22v-62h182v-65h-182v-145h-162v145h-84v65h84v62h-84v124h84v335zM219 607v-211h45q78 0 109 22t31 83q0 62 -31 84t-109 22h-45z" />
    <glyph glyph-name="afii10096" unicode="&#x44e;" 
d="M202 612v-244h88q69 0 106 35q34 32 34 86q0 63 -45 95q-41 28 -109 28h-74zM102 0v162h-80v68h80v70h-80v68h80v332h172q125 0 188 -49q36 -28 52 -66t16 -82q0 -94 -62 -149q-61 -54 -179 -54h-87v-70h140v-68h-140v-162h-100z" />
    <glyph glyph-name="afii10097" unicode="&#x44f;" 
d="M198 731h180q82 0 137 -12.5t92 -48.5q57 -55 57 -154q0 -104 -65 -166q-28 -27 -63 -43.5t-79.5 -23.5t-78 -9t-86.5 -2h-21l-12 -62h182l-13 -65h-182l-28 -145h-162l28 145h-83l13 65h84l12 62h-84l23 124h85zM336 607l-41 -211h48q95 0 127 34q30 32 30 88
q0 43 -23 66t-100 23h-41z" />
    <glyph glyph-name="afii61352" unicode="&#x2116;" horiz-adv-x="580" 
d="M120 700h193q61 0 104.5 -10.5t78.5 -43.5q54 -52 54 -142q0 -85 -51 -136q-58 -58 -195 -58h-90v-80h220v-70h-220v-160h-94v160h-80v70h80v80h-80v70h80v320zM214 621v-241h86q84 0 123 33q37 31 37 89t-37 88q-16 14 -46 23q-29 8 -77 8h-86z" />
  </font>
</defs>
</svg>
